<svg width="27" height="33" viewBox="0 0 27 33" fill="none" xmlns="http://www.w3.org/2000/svg">
<path d="M16.2574 9.9275H19.1887C19.2702 9.9275 19.351 9.94357 19.4264 9.97479C19.5018 10.006 19.5703 10.0518 19.628 10.1095C19.6856 10.1671 19.7314 10.2356 19.7626 10.311C19.7938 10.3864 19.8099 10.4672 19.8099 10.5488V14.1012C19.8099 14.1828 19.7938 14.2636 19.7626 14.339C19.7314 14.4144 19.6856 14.4829 19.628 14.5405C19.5703 14.5982 19.5018 14.644 19.4264 14.6752C19.351 14.7064 19.2702 14.7225 19.1887 14.7225H16.2574V17.6537C16.2574 17.8185 16.192 17.9765 16.0755 18.093C15.9589 18.2095 15.8009 18.275 15.6362 18.275H12.0837C11.9189 18.275 11.7609 18.2095 11.6444 18.093C11.5279 17.9765 11.4624 17.8185 11.4624 17.6537V14.7225H8.53116C8.3664 14.7225 8.20838 14.657 8.09187 14.5405C7.97537 14.424 7.90991 14.266 7.90991 14.1012V10.5488C7.90991 10.384 7.97537 10.226 8.09187 10.1095C8.20838 9.99295 8.3664 9.9275 8.53116 9.9275H11.4624V6.99625C11.4624 6.91467 11.4785 6.83388 11.5097 6.75851C11.5409 6.68313 11.5867 6.61465 11.6444 6.55696C11.7021 6.49927 11.7705 6.45351 11.8459 6.42229C11.9213 6.39107 12.0021 6.375 12.0837 6.375H15.6362C15.7177 6.375 15.7985 6.39107 15.8739 6.42229C15.9493 6.45351 16.0178 6.49927 16.0755 6.55696C16.1331 6.61465 16.1789 6.68313 16.2101 6.75851C16.2413 6.83388 16.2574 6.91467 16.2574 6.99625V9.9275ZM15.6362 11.17C15.4714 11.17 15.3134 11.1045 15.1969 10.988C15.0804 10.8715 15.0149 10.7135 15.0149 10.5488V7.6175H12.7049V10.5488C12.7049 10.7135 12.6395 10.8715 12.523 10.988C12.4064 11.1045 12.2484 11.17 12.0837 11.17H9.15241V13.48H12.0837C12.2484 13.48 12.4064 13.5455 12.523 13.662C12.6395 13.7785 12.7049 13.9365 12.7049 14.1012V17.0325H15.0149V14.1012C15.0149 13.9365 15.0804 13.7785 15.1969 13.662C15.3134 13.5455 15.4714 13.48 15.6362 13.48H18.5674V11.17H15.6362Z" fill="#1A5B97"/>
<path d="M13.8914 31.393C15.8747 29.6136 17.7248 27.691 19.4267 25.6407C22.2345 22.244 24.2199 18.9032 25.0232 15.8145C25.2795 14.8301 25.4108 13.8825 25.4108 12.976C25.4108 11.7685 25.2209 10.5846 24.8543 9.45587C23.8174 6.27875 21.4094 3.6835 18.3005 2.38062C16.8664 1.7808 15.327 1.47293 13.7724 1.475C7.35516 1.475 2.13491 6.63663 2.13491 12.976C2.13491 13.8825 2.26616 14.8301 2.52254 15.8154C3.32579 18.9041 5.31116 22.244 8.11991 25.6407C9.85535 27.7314 11.7448 29.6893 13.7724 31.498L13.8914 31.393ZM13.3787 32.779C13.1963 32.624 13.016 32.4665 12.8379 32.3065C10.8087 30.486 8.91596 28.519 7.17491 26.4212C4.26291 22.8985 2.19354 19.4169 1.33691 16.1234C1.05516 15.041 0.909912 13.991 0.909912 12.976C0.909912 5.95675 6.68141 0.25 13.7724 0.25C15.5102 0.25 17.2024 0.593 18.7739 1.251C22.21 2.69125 24.8709 5.55862 26.0189 9.077C26.4258 10.3274 26.6358 11.639 26.6358 12.976C26.6358 13.991 26.4905 15.041 26.2088 16.1234C25.3522 19.4169 23.2819 22.8985 20.3699 26.4212C18.6289 28.519 16.7361 30.486 14.7069 32.3065C14.4514 32.5349 14.2677 32.6941 14.167 32.779C14.0567 32.8718 13.9171 32.9227 13.7729 32.9227C13.6286 32.9227 13.489 32.8718 13.3787 32.779Z" fill="#1A5B97"/>
<path d="M14.7087 26.3355C15.6147 25.4001 16.4893 24.4347 17.3311 23.441C17.9192 22.7481 18.4813 22.0336 19.0163 21.299C19.6323 20.4459 20.1241 19.6628 20.4688 18.968C20.5412 18.8225 20.6685 18.7117 20.8225 18.66C20.9766 18.6083 21.1449 18.62 21.2904 18.6924C21.4359 18.7648 21.5467 18.892 21.5984 19.0461C21.6501 19.2002 21.6385 19.3685 21.5661 19.514C21.1872 20.2753 20.6622 21.1135 20.0086 22.0165C19.4558 22.7758 18.875 23.5142 18.2673 24.2303C17.4079 25.2453 16.5149 26.2314 15.5898 27.1869C15.1889 27.6019 14.782 28.0112 14.3692 28.4145C14.2551 28.524 14.103 28.5852 13.9448 28.5851H13.8468C13.6886 28.5852 13.5366 28.524 13.4224 28.4145C13.0097 28.0112 12.6028 27.6019 12.2018 27.1869C11.2767 26.2311 10.3837 25.2447 9.52432 24.2294C8.91636 23.5133 8.33525 22.7749 7.78219 22.0156C7.12857 21.1109 6.60357 20.2726 6.2247 19.5105C6.18593 19.4382 6.16208 19.3589 6.15456 19.2772C6.14704 19.1955 6.156 19.1132 6.18091 19.035C6.20582 18.9569 6.24617 18.8845 6.29957 18.8223C6.35298 18.76 6.41834 18.7091 6.49179 18.6726C6.56523 18.6361 6.64526 18.6147 6.72713 18.6097C6.80901 18.6047 6.89105 18.6162 6.96839 18.6435C7.04574 18.6708 7.11681 18.7133 7.17739 18.7686C7.23797 18.8239 7.28683 18.8908 7.32107 18.9654C7.66669 19.6601 8.15845 20.4441 8.77532 21.2981C9.26882 21.9806 9.83407 22.6981 10.4606 23.4401C11.3023 24.4341 12.1769 25.3998 13.0829 26.3355C13.3752 26.6391 13.6482 26.9156 13.8958 27.1615C14.1426 26.9165 14.4156 26.6391 14.7087 26.3355Z" fill="#1A5B97"/>
</svg>
