<svg width="26" height="31" viewBox="0 0 26 31" fill="none" xmlns="http://www.w3.org/2000/svg">
<path d="M20.1288 8C20.1288 4.4755 17.0234 1.65625 12.91 1.65625C9.54566 1.65625 6.56628 4.591 6.56628 8C6.56628 11.871 9.79766 16.0938 12.91 16.0938C16.7574 16.0938 20.1288 12.032 20.1288 8ZM21.4413 8C21.4413 12.7084 17.5414 17.4062 12.91 17.4062C8.98478 17.4062 5.25378 12.5308 5.25378 8C5.25378 3.86125 8.82553 0.34375 12.91 0.34375C17.7217 0.34375 21.4413 3.72125 21.4413 8Z" fill="#1A5B97"/>
<path d="M24.2545 29.2188C24.1909 29.013 24.1287 28.8068 24.0681 28.6001L23.8135 27.7199C22.9621 24.7632 22.4222 23.5041 21.2795 22.3377C19.7937 20.8205 17.4592 20.0312 13.7851 20.0312C9.70933 20.0312 7.1272 20.8476 5.5102 22.4095C4.27733 23.5995 3.71645 24.8683 2.83708 27.8853L2.62708 28.601C2.5663 28.8073 2.50417 29.0132 2.4407 29.2188H24.2545ZM0.915578 29.6598C1.06083 29.2398 1.19995 28.7987 1.36883 28.2283L1.57708 27.5177C2.51858 24.2864 3.14683 22.8671 4.59845 21.4654C6.49108 19.6366 9.39695 18.7188 13.7851 18.7188C17.7847 18.7188 20.457 19.6226 22.2166 21.419C23.5641 22.7928 24.1643 24.1936 25.0743 27.3568C25.2467 27.9553 25.259 27.9972 25.3272 28.2291C25.4917 28.7891 25.6335 29.2354 25.7796 29.6598C25.8139 29.7586 25.8241 29.8642 25.8093 29.9678C25.7945 30.0714 25.7551 30.1699 25.6945 30.2552C25.6339 30.3405 25.5538 30.4101 25.4608 30.4581C25.3678 30.5061 25.2647 30.5312 25.1601 30.5312H1.53508C1.43044 30.5312 1.32734 30.5061 1.23437 30.4581C1.1414 30.4101 1.06126 30.3405 1.00064 30.2552C0.940017 30.1699 0.900665 30.0714 0.885868 29.9678C0.87107 29.8642 0.881257 29.7586 0.915578 29.6598Z" fill="#1A5B97"/>
<path d="M20.7771 29.455C20.7958 29.5403 20.7974 29.6284 20.7816 29.7142C20.7658 29.8001 20.733 29.8819 20.6853 29.9549C20.6375 30.028 20.5756 30.0907 20.5032 30.1396C20.4309 30.1884 20.3495 30.2223 20.2639 30.2393C20.1783 30.2563 20.0902 30.256 20.0046 30.2385C19.9191 30.221 19.838 30.1867 19.7659 30.1374C19.6938 30.0882 19.6323 30.0251 19.5849 29.9518C19.5376 29.8785 19.5053 29.7964 19.49 29.7105L18.8241 26.3566C18.7941 26.1875 18.8315 26.0133 18.9284 25.8715C19.0253 25.7297 19.174 25.6315 19.3425 25.598C19.511 25.5646 19.6859 25.5985 19.8296 25.6926C19.9733 25.7867 20.0745 25.9333 20.1113 26.1011L20.7771 29.455ZM6.17427 26.1011C6.20815 25.9303 6.3085 25.78 6.45323 25.6832C6.59796 25.5864 6.77522 25.551 6.94602 25.5849C7.11682 25.6188 7.26717 25.7191 7.36398 25.8638C7.4608 26.0086 7.49615 26.1858 7.46227 26.3566L6.7964 29.7105C6.77962 29.7951 6.74635 29.8755 6.69849 29.9472C6.65063 30.0189 6.58911 30.0805 6.51744 30.1285C6.44578 30.1764 6.36537 30.2098 6.28082 30.2266C6.19627 30.2435 6.10922 30.2435 6.02465 30.2268C5.94008 30.21 5.85964 30.1767 5.78792 30.1288C5.71621 30.081 5.65463 30.0195 5.60669 29.9478C5.55875 29.8761 5.5254 29.7957 5.50853 29.7112C5.49167 29.6266 5.49162 29.5396 5.5084 29.455L6.17427 26.1011Z" fill="#1A5B97"/>
<path d="M12.2538 7.78125H9.41003C9.23599 7.78125 9.06907 7.71211 8.946 7.58904C8.82292 7.46597 8.75378 7.29905 8.75378 7.125C8.75378 6.95095 8.82292 6.78403 8.946 6.66096C9.06907 6.53789 9.23599 6.46875 9.41003 6.46875H12.91C13.0841 6.46875 13.251 6.53789 13.3741 6.66096C13.4971 6.78403 13.5663 6.95095 13.5663 7.125V10.8438H14.66C14.8341 10.8438 15.001 10.9129 15.1241 11.036C15.2471 11.159 15.3163 11.326 15.3163 11.5C15.3163 11.674 15.2471 11.841 15.1241 11.964C15.001 12.0871 14.8341 12.1562 14.66 12.1562H12.91C12.736 12.1562 12.5691 12.0871 12.446 11.964C12.3229 11.841 12.2538 11.674 12.2538 11.5V7.78125Z" fill="#1A5B97"/>
</svg>
